<svg xmlns="http://www.w3.org/2000/svg" viewBox="0 0 326.191 34.419"><defs><style>.a{fill:#03a9ac;}</style></defs><path class="a" d="M10.836-6.531,8.7-.761Q8.35,0,7.051,0H.575Q-.186,0-.186-.575A1.862,1.862,0,0,1,0-1.28L11.374-32.192a2.225,2.225,0,0,1,2.134-1.41,2.318,2.318,0,0,1,2.171,1.447L28.8-1.169a1.313,1.313,0,0,1,.167.557q0,.612-1.113.612H25.587a2.055,2.055,0,0,1-2-.909L21-6.531Zm7.83-4.453q.538,0,.538-.445a1.166,1.166,0,0,0-.019-.186l-3.433-7.941a.559.559,0,0,0-.408-.241q-.2,0-.39.3l-2.746,7.812a.882.882,0,0,0-.037.241q0,.464.52.464Zm21.728-4.323a1.133,1.133,0,0,0,1.206.724h3.878a5.851,5.851,0,0,0,3.859-1.837,7.18,7.18,0,0,0,2.1-5.232,6.834,6.834,0,0,0-1.874-5.028A7.206,7.206,0,0,0,44.476-28.8h-2.82q-1,0-1.262.631Zm5.771-18.035a11.632,11.632,0,0,1,7.607,3.637,10.93,10.93,0,0,1,3.377,8,11.276,11.276,0,0,1-3.6,8.22A11.51,11.51,0,0,1,46.183-10H40.394v8.609A1.214,1.214,0,0,1,39.039,0H32.248Q31,0,31-1.466v-30.6q0-1.28,1.354-1.28Zm23.62,18.035a1.133,1.133,0,0,0,1.206.724h3.878a5.851,5.851,0,0,0,3.859-1.837,7.18,7.18,0,0,0,2.1-5.232,6.834,6.834,0,0,0-1.874-5.028A7.206,7.206,0,0,0,73.866-28.8h-2.82q-1,0-1.262.631Zm5.771-18.035a11.632,11.632,0,0,1,7.607,3.637,10.93,10.93,0,0,1,3.377,8,11.276,11.276,0,0,1-3.6,8.22A11.51,11.51,0,0,1,75.573-10H69.784v8.609A1.214,1.214,0,0,1,68.43,0H61.639Q60.4,0,60.4-1.466v-30.6q0-1.28,1.354-1.28Zm26.2,15.976h.037q2.5,7.607,2.542,9.073v.278a7.941,7.941,0,0,1-2.171,5.381A8.655,8.655,0,0,1,96.15.241q-.445.037-.872.037A8.065,8.065,0,0,1,89.4-1.893a1.011,1.011,0,0,1-.167-.557,1.6,1.6,0,0,1,.334-.891L90.9-4.676a1.291,1.291,0,0,1,1.021-.631,1.522,1.522,0,0,1,.909.371,3.824,3.824,0,0,0,1.837.649,1.308,1.308,0,0,0,.872-.3,1.525,1.525,0,0,0,.538-1.243A3.643,3.643,0,0,0,95.891-6.9l-3.136-9.556h-.037q-2.5-7.607-2.542-9.073v-.278a7.971,7.971,0,0,1,2.189-5.4,8.62,8.62,0,0,1,5.993-2.857q.445-.037.872-.037a8.065,8.065,0,0,1,5.882,2.171,1.042,1.042,0,0,1,.167.575,1.572,1.572,0,0,1-.315.872l-1.354,1.336a1.291,1.291,0,0,1-1.021.631,1.522,1.522,0,0,1-.909-.371,3.824,3.824,0,0,0-1.837-.649,1.288,1.288,0,0,0-.854.278A1.556,1.556,0,0,0,98.433-28a3.643,3.643,0,0,0,.186,1.076Zm45.366,4.193a14.253,14.253,0,0,1-2.152,7.236Q141.442.111,133.742.186h-.353q-7.459,0-10.984-3.247-3.989-3.321-3.989-7.422.186-7.774,8.257-10.5-4.323-2.486-4.323-5.548A6.936,6.936,0,0,1,124.8-31.84a10.133,10.133,0,0,1,6.884-2.3,17.408,17.408,0,0,1,4.5.5,8.97,8.97,0,0,1,3.8,2.431,7.024,7.024,0,0,1,2.143,4.676q0,1.967-.816,1.967h-.148L139.55-24.9q-1.967-.315-1.967-1.651a3.767,3.767,0,0,0-2.171-2.783,4.159,4.159,0,0,0-1.521-.3,4.245,4.245,0,0,0-1.744.39q-1.67.742-1.67,3.8,0,4.156,4.713,4.49.816.13.816.371a2.691,2.691,0,0,1-2.022,2.839q-5.548,1.021-5.548,7.255a5.153,5.153,0,0,0,2,4.212A10.6,10.6,0,0,0,135-5.232a11.9,11.9,0,0,0,2.746-.334,7.734,7.734,0,0,0,5.455-4.416,7.048,7.048,0,0,0,.705-2.932,5.305,5.305,0,0,0-.074-.909,22.236,22.236,0,0,0-3.154-1.262,4.222,4.222,0,0,0-1.169-.2,1.2,1.2,0,0,0-1.28.946.712.712,0,0,1-.779.482l-.278-.093q-.872-.223-.872-.835a1.3,1.3,0,0,1,.074-.408q1.54-3.971,5.065-3.971a6.9,6.9,0,0,1,1.67.223,12.348,12.348,0,0,1,3.47,1.67,3.027,3.027,0,0,0,1.577.594,1.5,1.5,0,0,0,1.373-1.039.712.712,0,0,1,.779-.482l.278.093q.371.019.371.668a6.727,6.727,0,0,1-.278,1.614Q150.07-13.563,147.12-13.174Zm28.8-4.193h.037q2.5,7.607,2.542,9.073v.278a7.941,7.941,0,0,1-2.171,5.381A8.655,8.655,0,0,1,170.313.241q-.445.037-.872.037a8.065,8.065,0,0,1-5.882-2.171,1.011,1.011,0,0,1-.167-.557,1.6,1.6,0,0,1,.334-.891l1.336-1.336a1.291,1.291,0,0,1,1.021-.631,1.522,1.522,0,0,1,.909.371,3.824,3.824,0,0,0,1.837.649,1.308,1.308,0,0,0,.872-.3,1.525,1.525,0,0,0,.538-1.243,3.643,3.643,0,0,0-.186-1.076l-3.136-9.556h-.037q-2.5-7.607-2.542-9.073v-.278a7.971,7.971,0,0,1,2.189-5.4,8.62,8.62,0,0,1,5.993-2.857q.445-.037.872-.037a8.065,8.065,0,0,1,5.882,2.171,1.042,1.042,0,0,1,.167.575,1.572,1.572,0,0,1-.315.872l-1.354,1.336a1.291,1.291,0,0,1-1.021.631,1.522,1.522,0,0,1-.909-.371,3.824,3.824,0,0,0-1.837-.649,1.288,1.288,0,0,0-.854.278A1.556,1.556,0,0,0,172.6-28a3.643,3.643,0,0,0,.186,1.076Zm7.255.612q-.019-.371-.019-.724a16.018,16.018,0,0,1,.8-4.991,15.471,15.471,0,0,1,8.071-9.166,18.012,18.012,0,0,1,8.331-1.967,23.807,23.807,0,0,1,5.6.705,17.248,17.248,0,0,1,9.166,6.438,2.562,2.562,0,0,1,.353,1.15,1.054,1.054,0,0,1-.816,1.021l-1.3.854a3.516,3.516,0,0,1-1.169.241,1.245,1.245,0,0,1-1.206-.687,18.448,18.448,0,0,0-7.106-4.564,18.847,18.847,0,0,0-4.063-.538,5.171,5.171,0,0,0-2.95.705q-1.67.983-1.67,5.214v12.636q0,4.23,1.67,5.214a5.171,5.171,0,0,0,2.95.705,18.847,18.847,0,0,0,4.063-.538,18.448,18.448,0,0,0,7.106-4.564,1.245,1.245,0,0,1,1.206-.687,3.516,3.516,0,0,1,1.169.241l1.3.854a1.054,1.054,0,0,1,.816,1.021,2.562,2.562,0,0,1-.353,1.15,17.248,17.248,0,0,1-9.166,6.438,23.807,23.807,0,0,1-5.6.705,17.875,17.875,0,0,1-8.331-1.985,15.4,15.4,0,0,1-8.071-9.147,16.076,16.076,0,0,1-.8-5.01Q183.153-16.384,183.172-16.755Zm51.174-16.588a11.72,11.72,0,0,1,7.607,3.618,10.992,10.992,0,0,1,3.377,8.016,10.92,10.92,0,0,1-3.358,8,11.679,11.679,0,0,1-2.5,2.171.842.842,0,0,0-.26.575.8.8,0,0,0,.056.278L243.53-3.3l1.354,2.356a1.078,1.078,0,0,1,.167.5q0,.445-.779.445h-4.564a1.079,1.079,0,0,1-.983-.5L233.418-10H229.6q-.928,0-.928.816v7.737A1.279,1.279,0,0,1,227.221,0H220.43a1.116,1.116,0,0,1-1.243-1.28V-32.062q0-1.28,1.354-1.28ZM228.668-15.92a1.165,1.165,0,0,0,1.3,1.336h3.878a5.851,5.851,0,0,0,3.859-1.837,7.18,7.18,0,0,0,2.1-5.232,6.834,6.834,0,0,0-1.874-5.028,7.206,7.206,0,0,0-5.084-2.115h-2.82q-1.354,0-1.354,1.169Zm27.795-8.146a1.238,1.238,0,0,1,1.41,1.392V-1.392A1.214,1.214,0,0,1,256.519,0h-6.791q-1.243,0-1.243-1.466V-22.785q0-1.28,1.354-1.28Zm.427-4.694H249.5q-1.021,0-1.021-.779v-2.82q0-.983,1.132-1H256.8q1.076,0,1.076.983v2.82Q257.873-28.778,256.89-28.76Zm14.64,13.452a1.133,1.133,0,0,0,1.206.724h3.878a5.851,5.851,0,0,0,3.859-1.837,7.18,7.18,0,0,0,2.1-5.232,6.834,6.834,0,0,0-1.874-5.028,7.206,7.206,0,0,0-5.084-2.115h-2.82q-1,0-1.262.631ZM277.3-33.343a11.632,11.632,0,0,1,7.607,3.637,10.93,10.93,0,0,1,3.377,8,11.276,11.276,0,0,1-3.6,8.22A11.51,11.51,0,0,1,277.318-10h-5.789v8.609A1.214,1.214,0,0,1,270.175,0h-6.791q-1.243,0-1.243-1.466v-30.6q0-1.28,1.354-1.28Zm29.075,0q1.076,0,1.076.983v2.82q0,.779-1.021.779h-3.08V-1.392A1.214,1.214,0,0,1,302,0h-6.476q-1.243,0-1.243-1.466V-28.76H291.16q-1.02,0-1.021-.779v-2.82q0-.983,1.076-.983ZM322.48-17.367h.037q2.5,7.607,2.542,9.073v.278a7.941,7.941,0,0,1-2.171,5.381A8.655,8.655,0,0,1,316.877.241q-.445.037-.872.037a8.065,8.065,0,0,1-5.882-2.171,1.011,1.011,0,0,1-.167-.557,1.6,1.6,0,0,1,.334-.891l1.336-1.336a1.291,1.291,0,0,1,1.021-.631,1.522,1.522,0,0,1,.909.371,3.824,3.824,0,0,0,1.837.649,1.308,1.308,0,0,0,.872-.3,1.525,1.525,0,0,0,.538-1.243,3.643,3.643,0,0,0-.186-1.076l-3.136-9.556h-.037q-2.5-7.607-2.542-9.073v-.278a7.971,7.971,0,0,1,2.189-5.4,8.62,8.62,0,0,1,5.993-2.857q.445-.037.872-.037a8.065,8.065,0,0,1,5.882,2.171,1.042,1.042,0,0,1,.167.575,1.572,1.572,0,0,1-.315.872l-1.354,1.336a1.291,1.291,0,0,1-1.021.631,1.522,1.522,0,0,1-.909-.371,3.824,3.824,0,0,0-1.837-.649,1.288,1.288,0,0,0-.854.278A1.556,1.556,0,0,0,319.159-28a3.643,3.643,0,0,0,.186,1.076Z" transform="translate(0.186 34.141)"/></svg>