<svg xmlns="http://www.w3.org/2000/svg" xmlns:xlink="http://www.w3.org/1999/xlink" viewBox="0 0 522 127"><defs><style>.a{fill:#03a9ac;}.b{fill:#00d6a4;stroke:#fff;stroke-width:1.5px;}.c{filter:url(#c);}.d{filter:url(#a);}</style><filter id="a" x="0" y="0" width="522" height="127" filterUnits="userSpaceOnUse"><feOffset dy="3" input="SourceAlpha"/><feGaussianBlur stdDeviation="3" result="b"/><feFlood flood-opacity="0.09"/><feComposite operator="in" in2="b"/><feComposite in="SourceGraphic"/></filter><filter id="c" x="42.072" y="25.839" width="438.917" height="71.814" filterUnits="userSpaceOnUse"><feOffset dy="2" input="SourceAlpha"/><feGaussianBlur stdDeviation="2" result="d"/><feFlood flood-opacity="0.161"/><feComposite operator="in" in2="d"/><feComposite in="SourceGraphic"/></filter></defs><g transform="translate(-330 -730)"><g class="d" transform="matrix(1, 0, 0, 1, 330, 730)"><rect class="a" width="504" height="109" rx="54.5" transform="translate(9 6)"/></g><g class="c" transform="matrix(1, 0, 0, 1, 330, 730)"><path class="b" d="M29.584-1.611Q28.875.1,27.521.1H24.879A2.668,2.668,0,0,1,22.623-1.45L.58-55.687a3.307,3.307,0,0,1-.258-1.128q0-1.1,1.386-1.1H14.6a2.735,2.735,0,0,1,2.707,1.8L28.134-27.038q.258.838.483.838.258,0,.451-.806l8.637-29.52q.548-1.386,2.61-1.386h4.576q1.966,0,1.966,1.708a3.786,3.786,0,0,1-.064.677Zm32.1-33.22a1.792,1.792,0,0,1,2.041,2.014v30.8A1.757,1.757,0,0,1,61.762,0H51.933q-1.8,0-1.8-2.122V-32.979q0-1.853,1.96-1.853Zm.618-6.794H51.611q-1.477,0-1.477-1.128v-4.082q0-1.423,1.638-1.45H62.165q1.558,0,1.558,1.423v4.082Q63.723-41.653,62.3-41.626ZM86.5-30h20.92q1.665,0,1.8-.752Q107.282-39.37,98.957-41.2a22.522,22.522,0,0,0-4.968-.618A11.064,11.064,0,0,0,87.6-40.068q-1.1.591-1.1,3.062Zm0,6.633v8.271q0,6.123,2.417,7.546a7.484,7.484,0,0,0,4.27,1.021A27.279,27.279,0,0,0,99.064-7.3a26.7,26.7,0,0,0,10.286-6.606A1.8,1.8,0,0,1,111.1-14.9a5.089,5.089,0,0,1,1.692.349l1.88,1.235a1.526,1.526,0,0,1,1.182,1.477,3.708,3.708,0,0,1-.51,1.665q-4.4,6.392-13.267,9.319A34.458,34.458,0,0,1,93.962.161,25.872,25.872,0,0,1,81.9-2.712q-8.862-4.539-11.682-13.24a23.35,23.35,0,0,1-1.128-7.17q0-.591.027-1.182-.027-.537-.027-1.074A23.013,23.013,0,0,1,70.222-32.5q2.82-8.728,11.682-13.293a26.07,26.07,0,0,1,12.058-2.847,34.458,34.458,0,0,1,8.11,1.021,21.219,21.219,0,0,1,11.87,9.91q3.652,6.768,3.652,12.192v.591a1.4,1.4,0,0,1-1.611,1.558Zm61.741,6.1q-.269-.645-.483-.645t-.376.457l-5.693,16.14Q141.093.107,139.965.107h-2.2a2.223,2.223,0,0,1-1.88-1.289L120.092-46.406a2.756,2.756,0,0,1-.215-.94q0-.913,1.155-.913h10.742a2.279,2.279,0,0,1,2.256,1.5l6.714,19.229q.215.7.4.7.215,0,.376-.671l1.692-4.78-4.888-14.126a2.756,2.756,0,0,1-.215-.94q0-.913,1.155-.913H150.52v.054a2.271,2.271,0,0,1,1.746,1.45l6.714,19.229q.215.7.4.7.215,0,.376-.671l6.821-19.6q.457-1.155,2.175-1.155h5.156q1.638,0,1.638,1.423a3.155,3.155,0,0,1-.054.564L159.65-1.316Q159.06.107,157.932.107h-2.2a2.223,2.223,0,0,1-1.88-1.289Zm78.305-3.454q-.322-.773-.58-.773t-.451.548L218.679-1.579Q217.97.129,216.616.129h-2.643a2.668,2.668,0,0,1-2.256-1.547l-18.949-54.27a3.307,3.307,0,0,1-.258-1.128q0-1.1,1.386-1.1h12.891a2.735,2.735,0,0,1,2.707,1.8l8.057,23.074q.258.838.483.838.258,0,.451-.806l2.03-5.736L214.65-55.687a3.307,3.307,0,0,1-.258-1.128q0-1.1,1.386-1.1h13.5v.064a2.726,2.726,0,0,1,2.095,1.74l8.057,23.074q.258.838.483.838.258,0,.451-.806l8.186-23.525q.548-1.386,2.61-1.386h6.188q1.966,0,1.966,1.708a3.786,3.786,0,0,1-.064.677L240.238-1.579Q239.529.129,238.176.129h-2.643a2.668,2.668,0,0,1-2.256-1.547ZM279.458-30h20.92q1.665,0,1.8-.752Q300.244-39.37,291.919-41.2a22.522,22.522,0,0,0-4.968-.618,11.064,11.064,0,0,0-6.392,1.746q-1.1.591-1.1,3.062Zm0,6.633v8.271q0,6.123,2.417,7.546a7.484,7.484,0,0,0,4.27,1.021,27.279,27.279,0,0,0,5.881-.779,26.7,26.7,0,0,0,10.286-6.606,1.8,1.8,0,0,1,1.746-.994,5.089,5.089,0,0,1,1.692.349l1.88,1.235a1.526,1.526,0,0,1,1.182,1.477,3.708,3.708,0,0,1-.51,1.665q-4.4,6.392-13.267,9.319a34.458,34.458,0,0,1-8.11,1.021,25.872,25.872,0,0,1-12.058-2.874Q266-7.251,263.184-15.952a23.35,23.35,0,0,1-1.128-7.17q0-.591.027-1.182-.027-.537-.027-1.074a23.013,23.013,0,0,1,1.128-7.117q2.82-8.728,11.682-13.293a26.07,26.07,0,0,1,12.058-2.847,34.458,34.458,0,0,1,8.11,1.021,21.219,21.219,0,0,1,11.87,9.91q3.652,6.768,3.652,12.192v.591a1.4,1.4,0,0,1-1.611,1.558Zm58.008-24.9a16.964,16.964,0,0,1,11.011,5.237,15.909,15.909,0,0,1,4.888,11.6A15.806,15.806,0,0,1,348.5-19.846a16.9,16.9,0,0,1-3.625,3.142,1.218,1.218,0,0,0-.376.833,1.151,1.151,0,0,0,.081.4L350.759-4.78l1.96,3.411a1.56,1.56,0,0,1,.242.725q0,.645-1.128.645h-6.606A1.561,1.561,0,0,1,343.8-.725l-7.681-13.75h-5.532q-1.343,0-1.343,1.182v11.2A1.851,1.851,0,0,1,327.153,0h-9.829a1.615,1.615,0,0,1-1.8-1.853V-46.406q0-1.853,1.96-1.853Zm-8.218,25.217a1.686,1.686,0,0,0,1.88,1.934h5.613a8.468,8.468,0,0,0,5.586-2.659,10.392,10.392,0,0,0,3.035-7.573,9.891,9.891,0,0,0-2.712-7.278,10.43,10.43,0,0,0-7.358-3.062h-4.082q-1.96,0-1.96,1.692Zm42.217-5.076q.161.322.376.322.3,0,.671-.564l11.279-19.067a1.755,1.755,0,0,1,1.692-.833h6.472q.913,0,.913.7a1.928,1.928,0,0,1-.134.618L382.476-28.816a.963.963,0,0,0-.161.483q0,.322.43.457,2.981,1.235,7.869,6.123a24.427,24.427,0,0,1,7.466,17.859v2.2Q398.079,0,396.548,0H391.2q-1.584,0-1.584-1.423V-3.894a18.845,18.845,0,0,0-5.613-13.777q-3.6-3.6-4.377-3.867a2.605,2.605,0,0,0-.51-.054,1.729,1.729,0,0,0-1.584.913L371.465-10.1v8.083A1.757,1.757,0,0,1,369.5,0h-9.373q-1.8,0-1.8-2.122V-46.406q0-1.853,1.96-1.853h9.131a1.792,1.792,0,0,1,2.041,2.014Zm49.172,2.981h.054Q424.316-14.126,424.37-12v.4a11.493,11.493,0,0,1-3.142,7.788,12.527,12.527,0,0,1-8.7,4.163Q411.882.4,411.265.4a11.673,11.673,0,0,1-8.513-3.142,1.463,1.463,0,0,1-.242-.806,2.315,2.315,0,0,1,.483-1.289l1.934-1.934a1.868,1.868,0,0,1,1.477-.913,2.2,2.2,0,0,1,1.316.537,5.535,5.535,0,0,0,2.659.94,1.893,1.893,0,0,0,1.262-.43,2.207,2.207,0,0,0,.779-1.8,5.272,5.272,0,0,0-.269-1.558l-4.539-13.831h-.054q-3.625-11.011-3.679-13.132v-.4a11.537,11.537,0,0,1,3.169-7.815,12.476,12.476,0,0,1,8.674-4.136q.645-.054,1.262-.054a11.673,11.673,0,0,1,8.513,3.142,1.508,1.508,0,0,1,.242.833,2.276,2.276,0,0,1-.457,1.262l-1.96,1.934a1.868,1.868,0,0,1-1.477.913,2.2,2.2,0,0,1-1.316-.537,5.535,5.535,0,0,0-2.659-.94,1.865,1.865,0,0,0-1.235.4,2.252,2.252,0,0,0-.806,1.826,5.272,5.272,0,0,0,.269,1.558Z" transform="translate(48.5 88.5)"/></g></g></svg>