<svg xmlns="http://www.w3.org/2000/svg" viewBox="0 0 320.439 42.23"><defs><style>.a{fill:#03a9ac;}</style></defs><path class="a" d="M4.1-.167v-31.9q0-1.28,1.354-1.28h6.309a1.238,1.238,0,0,1,1.41,1.392V-.093Q13.1,5.4,9.352,7.051A11.472,11.472,0,0,1,4.62,8.127a10.015,10.015,0,0,1-2.635-.353A8.462,8.462,0,0,1-3.674,3.507a.882.882,0,0,1-.037-.241,1.336,1.336,0,0,1,.668-1.058l1.707-.816a1.552,1.552,0,0,1,.854-.315,1.3,1.3,0,0,1,1.058.705A1.827,1.827,0,0,0,2,2.728a1.672,1.672,0,0,0,.835-.26A2.847,2.847,0,0,0,4.1-.167ZM42.676-1.781A17.54,17.54,0,0,1,34.79-.037,16.7,16.7,0,0,1,22.516-5.01a16.025,16.025,0,0,1-4.982-11.727,16.035,16.035,0,0,1,4.982-11.717A16.68,16.68,0,0,1,34.79-33.436a17.54,17.54,0,0,1,7.886,1.744v-.371q0-1.28,1.354-1.28h6.624a1.238,1.238,0,0,1,1.41,1.392v30.56A1.214,1.214,0,0,1,50.71,0H43.919q-1.243,0-1.243-1.466Zm0-8.869V-23.472a3.984,3.984,0,0,0-1.419-2.477q-1.271-1.16-5.427-1.531-.5-.037-.983-.037a11.32,11.32,0,0,0-6.9,2.468q-3.711,2.8-3.711,8.331,0,5.548,3.711,8.331a11.344,11.344,0,0,0,6.921,2.468q.482,0,.983-.037,4.193-.371,5.511-1.586A4.041,4.041,0,0,0,42.676-10.65ZM70.489-.928Q70.081.056,69.3.056H67.78a1.536,1.536,0,0,1-1.3-.891L53.79-32.062a1.9,1.9,0,0,1-.148-.649q0-.631.8-.631h7.422A1.575,1.575,0,0,1,63.42-32.3l6.234,16.736q.148.482.278.482.148,0,.26-.464l4.973-17q.315-.8,1.5-.8H79.3q1.132,0,1.132.983a2.18,2.18,0,0,1-.037.39Zm36.664-.854A17.54,17.54,0,0,1,99.268-.037,16.7,16.7,0,0,1,86.994-5.01a16.025,16.025,0,0,1-4.982-11.727,16.035,16.035,0,0,1,4.982-11.717,16.68,16.68,0,0,1,12.274-4.982,17.54,17.54,0,0,1,7.886,1.744v-.371q0-1.28,1.354-1.28h6.624a1.238,1.238,0,0,1,1.41,1.392v30.56A1.214,1.214,0,0,1,115.188,0H108.4q-1.243,0-1.243-1.466Zm0-8.869V-23.472a3.984,3.984,0,0,0-1.419-2.477q-1.271-1.16-5.427-1.531-.5-.037-.983-.037a11.32,11.32,0,0,0-6.9,2.468q-3.711,2.8-3.711,8.331,0,5.548,3.711,8.331a11.344,11.344,0,0,0,6.921,2.468q.482,0,.983-.037,4.193-.371,5.511-1.586A4.04,4.04,0,0,0,107.153-10.65Zm24.975-6.717h.037q2.5,7.607,2.542,9.073v.278a7.941,7.941,0,0,1-2.171,5.381A8.655,8.655,0,0,1,126.524.241q-.445.037-.872.037a8.065,8.065,0,0,1-5.882-2.171,1.011,1.011,0,0,1-.167-.557,1.6,1.6,0,0,1,.334-.891l1.336-1.336a1.291,1.291,0,0,1,1.021-.631,1.522,1.522,0,0,1,.909.371,3.824,3.824,0,0,0,1.837.649,1.308,1.308,0,0,0,.872-.3,1.525,1.525,0,0,0,.538-1.243,3.643,3.643,0,0,0-.186-1.076l-3.136-9.556h-.037q-2.5-7.607-2.542-9.073v-.278a7.971,7.971,0,0,1,2.189-5.4,8.62,8.62,0,0,1,5.993-2.857q.445-.037.872-.037a8.065,8.065,0,0,1,5.882,2.171,1.042,1.042,0,0,1,.167.575,1.572,1.572,0,0,1-.315.872l-1.354,1.336a1.291,1.291,0,0,1-1.021.631,1.522,1.522,0,0,1-.909-.371,3.824,3.824,0,0,0-1.837-.649,1.288,1.288,0,0,0-.854.278A1.556,1.556,0,0,0,128.807-28a3.643,3.643,0,0,0,.186,1.076Zm7.255.612q-.019-.371-.019-.724a16.018,16.018,0,0,1,.8-4.991,15.471,15.471,0,0,1,8.071-9.166,18.012,18.012,0,0,1,8.331-1.967,23.807,23.807,0,0,1,5.6.705,17.248,17.248,0,0,1,9.166,6.438,2.562,2.562,0,0,1,.353,1.15,1.054,1.054,0,0,1-.816,1.021l-1.3.854a3.516,3.516,0,0,1-1.169.241,1.245,1.245,0,0,1-1.206-.687,18.448,18.448,0,0,0-7.106-4.564,18.847,18.847,0,0,0-4.063-.538,5.171,5.171,0,0,0-2.95.705q-1.67.983-1.67,5.214v12.636q0,4.23,1.67,5.214a5.171,5.171,0,0,0,2.95.705,18.847,18.847,0,0,0,4.063-.538A18.448,18.448,0,0,0,167.2-9.611,1.245,1.245,0,0,1,168.4-10.3a3.516,3.516,0,0,1,1.169.241l1.3.854a1.054,1.054,0,0,1,.816,1.021,2.562,2.562,0,0,1-.353,1.15,17.248,17.248,0,0,1-9.166,6.438,23.807,23.807,0,0,1-5.6.705,17.875,17.875,0,0,1-8.331-1.985,15.4,15.4,0,0,1-8.071-9.147,16.076,16.076,0,0,1-.8-5.01Q139.364-16.384,139.383-16.755Zm51.174-16.588a11.72,11.72,0,0,1,7.607,3.618,10.992,10.992,0,0,1,3.377,8.016,10.92,10.92,0,0,1-3.358,8,11.679,11.679,0,0,1-2.5,2.171.842.842,0,0,0-.26.575.8.8,0,0,0,.056.278L199.741-3.3,201.1-.946a1.078,1.078,0,0,1,.167.5q0,.445-.779.445h-4.564a1.079,1.079,0,0,1-.983-.5L189.629-10h-3.822q-.928,0-.928.816v7.737A1.279,1.279,0,0,1,183.432,0h-6.791A1.116,1.116,0,0,1,175.4-1.28V-32.062q0-1.28,1.354-1.28ZM184.879-15.92a1.165,1.165,0,0,0,1.3,1.336h3.878a5.851,5.851,0,0,0,3.859-1.837,7.18,7.18,0,0,0,2.1-5.232,6.834,6.834,0,0,0-1.874-5.028,7.206,7.206,0,0,0-5.084-2.115h-2.82q-1.354,0-1.354,1.169Zm27.795-8.146a1.238,1.238,0,0,1,1.41,1.392V-1.392A1.214,1.214,0,0,1,212.729,0h-6.791Q204.7,0,204.7-1.466V-22.785q0-1.28,1.354-1.28Zm.427-4.694h-7.385q-1.021,0-1.021-.779v-2.82q0-.983,1.132-1h7.181q1.076,0,1.076.983v2.82Q214.084-28.778,213.1-28.76Zm14.64,13.452a1.133,1.133,0,0,0,1.206.724h3.878a5.851,5.851,0,0,0,3.859-1.837,7.18,7.18,0,0,0,2.1-5.232,6.834,6.834,0,0,0-1.874-5.028,7.206,7.206,0,0,0-5.084-2.115H229q-1,0-1.262.631Zm5.771-18.035a11.632,11.632,0,0,1,7.607,3.637,10.931,10.931,0,0,1,3.377,8,11.276,11.276,0,0,1-3.6,8.22A11.51,11.51,0,0,1,233.529-10H227.74v8.609A1.214,1.214,0,0,1,226.386,0h-6.791q-1.243,0-1.243-1.466v-30.6q0-1.28,1.354-1.28Zm29.075,0q1.076,0,1.076.983v2.82q0,.779-1.021.779h-3.08V-1.392A1.214,1.214,0,0,1,258.207,0h-6.476q-1.243,0-1.243-1.466V-28.76h-3.117q-1.021,0-1.021-.779v-2.82q0-.983,1.076-.983Zm12.19,20.633a1.25,1.25,0,0,1-.019-.2,1.384,1.384,0,0,1,.575-1.206q.427-.037.872-.037h.371a7.185,7.185,0,0,0,3.006-.464q.408-.2.408-1.206V-20.8q-.056-1.206-.594-1.447-.445-.427-3.562-.427a5.006,5.006,0,0,0-4.045,3.266,1.069,1.069,0,0,1-.779.241,5.623,5.623,0,0,1-1.818-.427q-1.095-.39-1.095-1.095a5.019,5.019,0,0,1,.816-1.429,9.035,9.035,0,0,1,7.292-4.509q5.733,0,8.387,1.726a6.071,6.071,0,0,1,2.653,5.492,8.9,8.9,0,0,1-2.653,6.587q-.26.26-.52.5a10.108,10.108,0,0,1,1.392,1.169,9.674,9.674,0,0,1,3.006,7.069,9.644,9.644,0,0,1-3.006,7.06q-3.006,3-9.259,3a10.083,10.083,0,0,1-7.422-3.006A3.576,3.576,0,0,1,267.429.8a.986.986,0,0,1,.612-1l2.022-.427A2.5,2.5,0,0,1,271.9.111,5.413,5.413,0,0,0,275.853,1.8q3.4,0,4.119-.612.482-.241.482-1.429V-9.593q-.074-1.447-.705-1.726-.52-.52-3.9-.52H275.7A.839.839,0,0,1,274.776-12.71Zm27.146,7.941a1.031,1.031,0,0,0,.408.445A4.575,4.575,0,0,0,305.559-3.3a5.422,5.422,0,0,0,4.917-2.839,13.548,13.548,0,0,0,1.707-7.088,13.881,13.881,0,0,0-1.484-6.68Zm7-17.312a5.389,5.389,0,0,0-3.358-1.058,3.767,3.767,0,0,0-2.876.872q-.965.482-1.076,2.895v9.927Zm7.812,8.851a15.041,15.041,0,0,1-3.08,9.454,10.464,10.464,0,0,1-8.813,4,10.424,10.424,0,0,1-8.776-4,15.041,15.041,0,0,1-3.08-9.454,15.023,15.023,0,0,1,3.08-9.426,10.415,10.415,0,0,1,8.776-4.008,10.454,10.454,0,0,1,8.813,4.008A15.023,15.023,0,0,1,316.729-13.229Z" transform="translate(3.711 34.103)"/></svg>