<svg xmlns="http://www.w3.org/2000/svg" viewBox="0 0 202.543 42.23"><defs><style>.a{fill:#03a9ac;}</style></defs><path class="a" d="M4.1-.167v-31.9q0-1.28,1.354-1.28h6.309a1.238,1.238,0,0,1,1.41,1.392V-.093Q13.1,5.4,9.352,7.051A11.472,11.472,0,0,1,4.62,8.127a10.015,10.015,0,0,1-2.635-.353A8.462,8.462,0,0,1-3.674,3.507a.882.882,0,0,1-.037-.241,1.336,1.336,0,0,1,.668-1.058l1.707-.816a1.552,1.552,0,0,1,.854-.315,1.3,1.3,0,0,1,1.058.705A1.827,1.827,0,0,0,2,2.728a1.672,1.672,0,0,0,.835-.26A2.847,2.847,0,0,0,4.1-.167Zm26.236-17.2h.037q2.5,7.607,2.542,9.073v.278a7.941,7.941,0,0,1-2.171,5.381A8.655,8.655,0,0,1,24.733.241q-.445.037-.872.037a8.065,8.065,0,0,1-5.882-2.171,1.011,1.011,0,0,1-.167-.557,1.6,1.6,0,0,1,.334-.891l1.336-1.336A1.291,1.291,0,0,1,20.5-5.307a1.522,1.522,0,0,1,.909.371,3.824,3.824,0,0,0,1.837.649,1.308,1.308,0,0,0,.872-.3,1.525,1.525,0,0,0,.538-1.243A3.643,3.643,0,0,0,24.474-6.9l-3.136-9.556H21.3q-2.5-7.607-2.542-9.073v-.278a7.971,7.971,0,0,1,2.189-5.4,8.62,8.62,0,0,1,5.993-2.857q.445-.037.872-.037A8.065,8.065,0,0,1,33.7-31.933a1.042,1.042,0,0,1,.167.575,1.572,1.572,0,0,1-.315.872l-1.354,1.336a1.291,1.291,0,0,1-1.021.631,1.522,1.522,0,0,1-.909-.371,3.824,3.824,0,0,0-1.837-.649,1.288,1.288,0,0,0-.854.278A1.556,1.556,0,0,0,27.016-28a3.643,3.643,0,0,0,.186,1.076ZM57.612-28.8q-1.021,0-1.021,1.058v3.3q0,1.095,1,1.095h2a1.663,1.663,0,0,0,.965-.538,3.146,3.146,0,0,0,.854-2.356Q61.36-28.8,59.078-28.8Zm.612-4.546q5.14,0,7.014,2.134a7.184,7.184,0,0,1,1.874,4.88q0,2.95-.835,3.822,1.3.278,3.637,2.635a11.3,11.3,0,0,1,3.6,8.238,10.971,10.971,0,0,1-3.377,8A11.686,11.686,0,0,1,62.529,0H48.465A.968.968,0,0,1,47.37-1.095V-32.434q0-.909,1.169-.909Zm-.278,14.565q-1.354,0-1.354,1.169V-5.9a1.165,1.165,0,0,0,1.3,1.336h3.878A5.851,5.851,0,0,0,65.628-6.4a7.18,7.18,0,0,0,2.1-5.232,6.834,6.834,0,0,0-1.874-5.028,7.206,7.206,0,0,0-5.084-2.115Zm43.492,17A17.54,17.54,0,0,1,93.553-.037,16.7,16.7,0,0,1,81.279-5.01,16.025,16.025,0,0,1,76.3-16.736a16.035,16.035,0,0,1,4.982-11.717,16.68,16.68,0,0,1,12.274-4.982,17.54,17.54,0,0,1,7.886,1.744v-.371q0-1.28,1.354-1.28h6.624a1.238,1.238,0,0,1,1.41,1.392v30.56A1.214,1.214,0,0,1,109.473,0h-6.791q-1.243,0-1.243-1.466Zm0-8.869V-23.472a3.984,3.984,0,0,0-1.419-2.477q-1.271-1.16-5.427-1.531-.5-.037-.983-.037a11.32,11.32,0,0,0-6.9,2.468Q83-22.247,83-16.718q0,5.548,3.711,8.331a11.344,11.344,0,0,0,6.921,2.468q.482,0,.983-.037,4.193-.371,5.511-1.586A4.04,4.04,0,0,0,101.438-10.65Zm24.975-6.717h.037q2.5,7.607,2.542,9.073v.278a7.941,7.941,0,0,1-2.171,5.381A8.655,8.655,0,0,1,120.81.241q-.445.037-.872.037a8.065,8.065,0,0,1-5.882-2.171,1.011,1.011,0,0,1-.167-.557,1.6,1.6,0,0,1,.334-.891l1.336-1.336a1.291,1.291,0,0,1,1.021-.631,1.522,1.522,0,0,1,.909.371,3.824,3.824,0,0,0,1.837.649,1.308,1.308,0,0,0,.872-.3,1.525,1.525,0,0,0,.538-1.243A3.643,3.643,0,0,0,120.55-6.9l-3.136-9.556h-.037q-2.5-7.607-2.542-9.073v-.278a7.971,7.971,0,0,1,2.189-5.4,8.62,8.62,0,0,1,5.993-2.857q.445-.037.872-.037a8.065,8.065,0,0,1,5.882,2.171,1.042,1.042,0,0,1,.167.575,1.572,1.572,0,0,1-.315.872l-1.354,1.336a1.291,1.291,0,0,1-1.021.631,1.522,1.522,0,0,1-.909-.371,3.824,3.824,0,0,0-1.837-.649,1.288,1.288,0,0,0-.854.278A1.556,1.556,0,0,0,123.092-28a3.643,3.643,0,0,0,.186,1.076Zm15.4-6.7a1.238,1.238,0,0,1,1.41,1.392V-1.392A1.214,1.214,0,0,1,141.869,0h-6.791q-1.243,0-1.243-1.466V-22.785q0-1.28,1.354-1.28Zm.427-4.694h-7.385q-1.021,0-1.021-.779v-2.82q0-.983,1.132-1h7.181q1.076,0,1.076.983v2.82Q143.224-28.778,142.24-28.76Zm4.9,12q-.019-.371-.019-.724a16.018,16.018,0,0,1,.8-4.991,15.471,15.471,0,0,1,8.071-9.166A18.012,18.012,0,0,1,164.32-33.6a23.807,23.807,0,0,1,5.6.705,17.248,17.248,0,0,1,9.166,6.438,2.562,2.562,0,0,1,.353,1.15,1.054,1.054,0,0,1-.816,1.021l-1.3.854a3.516,3.516,0,0,1-1.169.241,1.245,1.245,0,0,1-1.206-.687,18.448,18.448,0,0,0-7.106-4.564,18.847,18.847,0,0,0-4.063-.538,5.171,5.171,0,0,0-2.95.705q-1.67.983-1.67,5.214v12.636q0,4.23,1.67,5.214a5.171,5.171,0,0,0,2.95.705,18.847,18.847,0,0,0,4.063-.538,18.448,18.448,0,0,0,7.106-4.564,1.245,1.245,0,0,1,1.206-.687,3.516,3.516,0,0,1,1.169.241l1.3.854a1.054,1.054,0,0,1,.816,1.021,2.562,2.562,0,0,1-.353,1.15,17.248,17.248,0,0,1-9.166,6.438,23.807,23.807,0,0,1-5.6.705,17.875,17.875,0,0,1-8.331-1.985,15.4,15.4,0,0,1-8.071-9.147,16.076,16.076,0,0,1-.8-5.01Q147.12-16.384,147.139-16.755Zm48.168-.612h.037q2.5,7.607,2.542,9.073v.278a7.941,7.941,0,0,1-2.171,5.381A8.655,8.655,0,0,1,189.7.241q-.445.037-.872.037a8.065,8.065,0,0,1-5.882-2.171,1.011,1.011,0,0,1-.167-.557,1.6,1.6,0,0,1,.334-.891l1.336-1.336a1.291,1.291,0,0,1,1.021-.631,1.522,1.522,0,0,1,.909.371,3.824,3.824,0,0,0,1.837.649,1.308,1.308,0,0,0,.872-.3,1.525,1.525,0,0,0,.538-1.243,3.643,3.643,0,0,0-.186-1.076l-3.136-9.556h-.037q-2.5-7.607-2.542-9.073v-.278a7.971,7.971,0,0,1,2.189-5.4,8.62,8.62,0,0,1,5.993-2.857q.445-.037.872-.037a8.065,8.065,0,0,1,5.882,2.171,1.042,1.042,0,0,1,.167.575,1.572,1.572,0,0,1-.315.872l-1.354,1.336a1.291,1.291,0,0,1-1.021.631,1.522,1.522,0,0,1-.909-.371,3.824,3.824,0,0,0-1.837-.649,1.288,1.288,0,0,0-.854.278A1.556,1.556,0,0,0,191.985-28a3.643,3.643,0,0,0,.186,1.076Z" transform="translate(3.711 34.103)"/></svg>