<?xml version="1.0" encoding="utf-8"?>
<!-- Generator: Adobe Illustrator 15.0.0, SVG Export Plug-In . SVG Version: 6.00 Build 0)  -->
<!DOCTYPE svg PUBLIC "-//W3C//DTD SVG 1.1//EN" "http://www.w3.org/Graphics/SVG/1.1/DTD/svg11.dtd">
<svg version="1.1" id="Layer_1" xmlns="http://www.w3.org/2000/svg" xmlns:xlink="http://www.w3.org/1999/xlink" x="0px" y="0px"
	 width="1063px" height="1063px" viewBox="0 0 1063 1063" enable-background="new 0 0 1063 1063" xml:space="preserve">
<g>
	<g>
		<path fill-rule="evenodd" clip-rule="evenodd" fill="#03A9AC" d="M394.294,28.308c7.296-1.811,12.931-2.797,42.707,0
			c134.519,19.07,237.065,80.285,302.83,173.381c157.323-34.395,259.333,93.728,289.238,222.093c0,9.742,0,19.479,0,29.221
			c-13.931,71.736-99.599,71.475-182.472,74.028c9.545,23.646,21.011,54.93,17.471,89.613c-4.515,44.235-34.711,81.55-27.178,138.32
			c7.066,53.267,23.958,109.071,25.236,169.488c49.864,22.717,138.027,7.734,124.236,91.562
			c-37.754,8.177-104.533,18.881-143.65,7.793c-36.556-10.363-57.179-67.414-75.705-101.305
			c-22.882-41.854-46.792-78.095-69.883-105.199c25.708-109.224-16.725-209.485-122.3-210.397
			c-58.208-0.504-107.492,28.871-132,72.082c88.457-48.646,206.581-8.809,213.532,79.872
			c8.84,112.776-111.403,142.166-201.886,161.694c55.051,3.646,121.295,2.844,176.65,11.69
			c49.511,7.911,110.008,19.977,106.767,75.979c-22.669,23.99-77.077,19.526-124.238,17.532
			c-90.795-3.839-173.428-9.692-271.768-3.898c-32.486,1.916-106.912,12.391-126.184-5.844
			c-14.255-13.493-14.469-37.745-11.643-56.496c2.714-18.019,17.777-33.169,17.469-48.703c-0.467-23.645-17.815-27.02-32.999-44.808
			c-32.523,41.638-145.218,53.353-153.357-17.536c0-6.492,0-12.983,0-19.478c8.516-38.273,44.449-57,89.293-52.603
			c-7.157-24.098-7.74-47.553-5.823-74.027C131.713,522.084,252.571,432.8,435.059,414.039c50.951-5.241,130.7-1.773,165.005-37.014
			c19.991-20.54,12.144-67.26,27.172-87.667c-63.097-36.162-143.69-71.33-231.005-95.458c-27.891-7.709-70.992-12.269-71.824-37.018
			c-1.411-42.1,81.583-46.541,118.417-48.701C402.388,105.562,327.49,47.823,394.294,28.308z M817.478,363.384
			c2.499,57.473,104.774,57.169,91.237-13.634c-4.31-22.541-25.732-36.177-50.47-33.121
			C830.958,320.011,816.383,338.276,817.478,363.384z"/>
		<path fill-rule="evenodd" clip-rule="evenodd" fill="#00D6A4" d="M354.878,257.358c1.972,0.085,3.949,0.171,5.925,0.256
			c9.735,3.372,19.767,7.822,30.852,12.392c10.639,4.382,24.776,8.351,28.135,16.531c7.6,18.515-10.39,40.081-6.737,58.442
			c1.9,9.558,12.459,16.63,18.526,22.93c5.52,5.729,13.384,17.653,21.213,19.639c20.931,5.311,38.413-12.197,57.936-6.021
			c10.417,3.298,15.156,20.388,19.081,29.762c4.188,9.992,12.917,25.03,11.143,37.082c-3.172,21.52-41.303,23.379-48.486,43.028
			c-4.621,12.625-4.23,41.305-0.52,51.903c3.077,8.795,14.909,14.457,24.56,20.631c7.209,4.612,21.626,11.866,22.834,21.407
			c1.451,11.476-7.846,26.547-12.642,37.762c-5.501,12.887-10.299,24.938-19.93,29.787c-20.626,1.298-35.155-10.72-53.046-9.091
			c-10.512,0.958-18.458,12.921-24.538,18.521c-7.038,6.482-18.049,14.535-19.68,23.84c-3.43,19.595,12.461,37.695,6.955,55.628
			c-3.199,10.417-23.673,15.129-31.31,18.229c-10.29,4.175-23.801,13.665-36.95,11.177c-18.94-3.58-24.22-41.902-41.184-48.585
			c-8.278-3.264-18.823-1.194-27.09-1.163c-8.15,0.022-18.38-1.097-25.509,1.456c-16,5.716-24.939,45.752-42.742,47.53
			c-10.893,1.088-27.457-9.454-36.741-13.497c-9.458-4.121-27.519-9.78-29.681-20.005c-3.396-16.051,11.772-38.834,8.32-55.82
			c-1.709-8.424-11.966-17.087-17.678-22.891c-5.713-5.805-13.017-16.22-22.136-17.978c-17.868-3.442-38.903,12.287-56.274,6.942
			c-11.67-3.588-14.487-19.273-19.049-30.611c-4.214-10.471-12.865-25.999-11.143-37.08c2.877-18.499,39.283-21.349,47.535-40.517
			c4.361-10.135,4.877-42.375,1.403-52.711c-6.755-20.089-41.342-21.103-48.174-43.78c0.061-1.418,0.123-2.836,0.182-4.253
			c4.117-10.43,7.272-20.085,12.421-32.657c3.904-9.529,8.596-23.644,16.436-27.384c16.352-7.8,39.779,9.565,58.235,6.759
			c7.658-1.162,16.04-11.761,22.849-18.592c6.994-7.022,17.603-12.874,19.604-22.143c3.912-18.104-13.526-42.012-5.923-59.837
			c3.472-8.143,22.969-14.308,30.428-17.416c9.863-4.114,24.412-13.363,37.758-10.294c8.25,1.896,13.823,15.253,19.342,23.816
			c5.674,8.8,12.593,21.084,20.188,23.85c12.237,4.461,43.419,3.981,52.557,0.557C328.853,298.629,336.94,260.295,354.878,257.358z
			 M191.239,454.609c-22.415,34.744-19.783,86.574-0.778,117.427c19.037,30.905,58.611,53.874,100.411,51.989
			c47.031-2.122,89.225-36.266,100.289-84.21c2.948-12.773,3.167-33.767,1.077-45.066c-9.392-50.792-53.334-94.616-117.437-90.175
			C237.304,407.176,205.459,432.558,191.239,454.609z"/>
		<path fill-rule="evenodd" clip-rule="evenodd" fill="#03D8CB" d="M538.567,670.463c4.584,5.137,4.477,15.543,7.926,21.943
			c2.929,2.281,6.128,3.652,9.771,5.047c2.666,1.021,7.348,3.657,10.787,3.308c7.473-0.757,12.99-12.152,19.947-12.331
			c4.198-0.101,9.652,5.476,12.148,7.712c2.405,2.156,8.337,6.499,9.004,11.246c1.275,9.134-9.059,13.21-9.373,21.804
			c-0.317,8.584,6.433,12.58,9.502,20.177c7.045,3.866,17.559-0.439,22.623,5.437c4.905,5.693,2.399,21.058,1.632,29.021
			c-6.562,4.956-15.574,3.054-21.341,7.37c-3.517,2.63-9.578,15.199-8.848,21.214c0.917,7.56,12.004,12.73,12.253,19.461
			c0.187,5.001-5.653,9.322-8.239,12.225c-2.526,2.836-6.603,8.966-10.62,9.56c-7.972,1.179-12.891-9.596-21.759-9.965
			c-6.41-0.26-18.436,7.324-20.537,11.805c-2.803,5.988,0.063,13.82-4.429,20.408c-8.107,1.897-22.034,3.476-29.505,1.113
			c-4.63-6.465-2.929-14.541-6.726-20.335c-2.48-3.8-15.034-9.541-21.138-8.879c-7.612,0.82-12.782,11.505-19.982,11.77
			c-5.299,0.196-8.646-4.809-12.179-8.266c-2.914-2.853-8.996-6.565-9.526-10.658c-0.929-7.174,9.696-14.107,9.96-21.283
			c0.308-8.299-7.465-14.837-10.092-20.7c-6.89-2.149-16.521-1.215-22.031-4.909c-1.323-8.401-5.842-22.505-1.635-29.021
			c3.545-5.494,15.605-4.39,19.705-6.715c5.097-2.891,10.511-13.906,9.372-21.81c-1.07-7.449-11.394-12.79-11.73-20.049
			c-0.224-4.923,6.078-9.928,8.24-12.227c2.002-2.125,7.778-9.193,11.175-9.588c6.245-0.73,11.754,8.647,19.504,9.53
			c7.401,0.843,20.261-5.646,22.822-10.813c3.046-6.144,0.098-13.767,4.955-20.996C518.002,670.181,530.678,668.991,538.567,670.463
			z M487.458,763.502c-7.537,36.245,23.627,61.226,56.992,51.074c10.712-3.259,22.001-15.51,25.834-26.658
			c8.975-26.121-8.85-48.127-25.389-54.546c-6.218-2.414-16.252-3.191-22.43-2.088C502.897,734.774,490.646,748.179,487.458,763.502
			z"/>
		<path fill-rule="evenodd" clip-rule="evenodd" fill="#00D6A4" d="M710.938,423.861c1.077-0.145,2.157-0.295,3.235-0.444
			c5.606,0.868,11.475,2.295,17.926,3.681c6.196,1.328,14.242,2.089,16.859,6.193c5.931,9.284-1.714,22.742,2.059,32.33
			c1.961,4.995,8.374,7.789,12.278,10.603c3.551,2.562,8.978,8.25,13.415,8.559c11.86,0.816,19.622-10.388,30.802-8.959
			c5.972,0.759,10.208,9.555,13.252,14.247c3.239,5.006,9.441,12.294,9.654,19.001c0.383,11.971-20.096,16.731-22.071,28.083
			c-1.269,7.295,1.742,22.799,4.785,28.176c2.525,4.466,9.492,6.37,15.327,8.767c4.356,1.79,12.878,4.301,14.462,9.354
			c1.905,6.074-1.662,15.158-3.161,21.709c-1.722,7.521-3.15,14.524-7.892,18.098c-11.053,2.734-20.101-2.352-29.634,0.291
			c-5.605,1.551-8.744,8.817-11.493,12.451c-3.177,4.205-8.355,9.651-8.333,14.854c0.055,10.956,10.433,19.2,9.202,29.46
			c-0.717,5.958-11.353,10.526-15.19,12.955c-5.167,3.275-11.562,9.745-18.93,9.693c-10.613-0.08-17.216-20.325-27.06-22.28
			c-4.807-0.956-10.319,1.209-14.793,2.034c-4.415,0.81-10.068,1.216-13.681,3.295c-8.111,4.673-9.046,27.247-18.52,29.962
			c-5.798,1.661-15.801-2.424-21.231-3.7c-5.527-1.304-15.866-2.595-18.039-7.924c-3.405-8.363,2.593-22.2-0.938-31.068
			c-1.748-4.391-8.153-8.08-11.816-10.663c-3.661-2.582-8.634-7.508-13.749-7.563c-10.02-0.109-19.883,10.481-29.822,9.293
			c-6.67-0.797-9.729-9.02-13.31-14.715c-3.304-5.255-9.506-12.824-9.656-18.999c-0.25-10.305,19.207-15.428,21.804-26.63
			c1.374-5.921-1.497-23.443-4.39-28.698c-5.62-10.225-24.461-7.373-30.377-18.992c-0.108-0.774-0.211-1.544-0.317-2.319
			c1.214-6.057,1.979-11.601,3.542-18.921c1.186-5.544,2.349-13.653,6.233-16.454c8.101-5.833,22.489,1.274,32.214-2.065
			c4.037-1.379,7.544-7.947,10.565-12.324c3.106-4.489,8.284-8.705,8.464-13.921c0.351-10.196-11.433-21.439-9.051-31.841
			c1.082-4.755,11.049-10.017,14.789-12.434c4.94-3.196,11.921-9.641,19.454-9.292c4.655,0.217,8.978,6.909,12.806,11.001
			c3.934,4.213,8.883,10.189,13.266,10.943c7.07,1.212,23.921-2.116,28.541-4.869C700.863,448.787,701.503,427.219,710.938,423.861z
			 M641.521,546.84c-8.751,21.037-2.267,48.862,11.044,63.714c13.334,14.871,37.02,23.427,59.487,18.294
			c25.281-5.773,44.813-28.426,46.125-55.493c0.347-7.21-1.583-18.609-3.819-24.526c-10.051-26.604-38.135-46.028-72.439-37.317
			C661.851,516.608,647.073,533.494,641.521,546.84z"/>
		<path fill-rule="evenodd" clip-rule="evenodd" fill="#03D8CB" d="M869.562,265.502c4.328,4.847,4.228,14.675,7.489,20.724
			c2.766,2.155,5.784,3.45,9.226,4.764c2.518,0.964,6.937,3.449,10.18,3.123c7.063-0.716,12.267-11.476,18.836-11.642
			c3.967-0.098,9.114,5.169,11.473,7.282c2.269,2.033,7.872,6.135,8.501,10.62c1.204,8.622-8.552,12.474-8.851,20.589
			c-0.299,8.107,6.071,11.875,8.973,19.052c6.654,3.646,16.579-0.416,21.36,5.132c4.634,5.375,2.266,19.883,1.547,27.404
			c-6.201,4.68-14.709,2.885-20.156,6.957c-3.323,2.488-9.042,14.352-8.354,20.036c0.863,7.14,11.333,12.015,11.568,18.375
			c0.176,4.724-5.334,8.799-7.779,11.544c-2.386,2.678-6.234,8.464-10.026,9.027c-7.528,1.114-12.174-9.062-20.548-9.409
			c-6.05-0.25-17.409,6.914-19.387,11.145c-2.647,5.656,0.057,13.048-4.182,19.269c-7.661,1.79-20.81,3.281-27.865,1.05
			c-4.369-6.104-2.765-13.73-6.348-19.203c-2.343-3.58-14.194-9.005-19.958-8.381c-7.19,0.774-12.071,10.866-18.87,11.114
			c-5.002,0.186-8.166-4.54-11.502-7.804c-2.752-2.695-8.491-6.198-8.993-10.065c-0.88-6.772,9.155-13.32,9.405-20.093
			c0.289-7.839-7.051-14.008-9.531-19.55c-6.506-2.028-15.598-1.149-20.805-4.634c-1.243-7.936-5.517-21.252-1.543-27.404
			c3.353-5.185,14.736-4.146,18.608-6.342c4.813-2.726,9.924-13.13,8.851-20.589c-1.014-7.032-10.757-12.075-11.074-18.932
			c-0.217-4.645,5.735-9.375,7.776-11.543c1.897-2.011,7.346-8.683,10.558-9.058c5.893-0.688,11.096,8.168,18.412,9.001
			c6.987,0.796,19.135-5.331,21.552-10.211c2.874-5.8,0.089-13.001,4.677-19.824C850.145,265.238,862.117,264.118,869.562,265.502z
			 M821.304,353.358c-7.12,34.224,22.306,57.813,53.814,48.225c10.115-3.079,20.776-14.646,24.393-25.172
			c8.476-24.664-8.357-45.447-23.972-51.507c-5.872-2.279-15.347-3.012-21.182-1.972
			C835.879,326.231,824.312,338.888,821.304,353.358z"/>
	</g>
	<path fill="none" d="M437.104,28.168"/>
</g>
</svg>
