<?xml version="1.0" encoding="utf-8"?>
<!-- Generator: Adobe Illustrator 15.0.0, SVG Export Plug-In . SVG Version: 6.00 Build 0)  -->
<!DOCTYPE svg PUBLIC "-//W3C//DTD SVG 1.1//EN" "http://www.w3.org/Graphics/SVG/1.1/DTD/svg11.dtd">
<svg version="1.1" id="Layer_1" xmlns="http://www.w3.org/2000/svg" xmlns:xlink="http://www.w3.org/1999/xlink" x="0px" y="0px"
	 width="2500px" height="2500px" viewBox="0 0 2500 2500" enable-background="new 0 0 2500 2500" xml:space="preserve">
<g>
	<rect fill-rule="evenodd" clip-rule="evenodd" fill="#212121" width="1000" height="1000"/>
	<path fill-rule="evenodd" clip-rule="evenodd" fill="#03A9AC" d="M379.238,55.654c6.481-1.603,11.486-2.476,37.936,0
		c119.492,16.88,210.583,71.063,269.001,153.465c139.749-30.444,230.364,82.962,256.929,196.582c0,8.623,0,17.241,0,25.864
		c-12.375,63.496-88.474,63.265-162.088,65.525c8.478,20.93,18.664,48.62,15.519,79.32c-4.01,39.154-30.833,72.183-24.142,122.432
		c6.278,47.148,21.281,96.542,22.417,150.02c44.293,20.107,122.609,6.846,110.358,81.045c-33.537,7.238-92.854,16.712-127.603,6.898
		c-32.474-9.173-50.791-59.67-67.249-89.668c-20.326-37.048-41.564-69.126-62.075-93.115
		c22.835-96.678-14.857-185.423-108.64-186.23c-51.704-0.446-95.483,25.555-117.254,63.802
		c78.576-43.058,183.504-7.796,189.679,70.698c7.853,99.821-98.958,125.835-179.334,143.12
		c48.901,3.228,107.746,2.518,156.917,10.349c43.981,7.002,97.718,17.681,94.84,67.251c-20.137,21.235-68.467,17.283-110.359,15.519
		c-80.653-3.398-154.055-8.579-241.41-3.451c-28.857,1.696-94.969,10.967-112.088-5.172c-12.663-11.943-12.853-33.41-10.342-50.006
		c2.411-15.949,15.791-29.36,15.518-43.109c-0.415-20.929-15.825-23.916-29.313-39.662c-28.89,36.855-128.996,47.225-136.226-15.521
		c0-5.747,0-11.493,0-17.241c7.565-33.877,39.484-50.453,79.318-46.56c-6.357-21.331-6.875-42.091-5.172-65.524
		c11.615-159.572,118.971-238.6,281.074-255.207c45.259-4.639,116.1-1.569,146.572-32.762c17.757-18.18,10.788-59.535,24.137-77.598
		c-56.05-32.008-127.64-63.136-205.2-84.494c-24.775-6.823-63.062-10.859-63.8-32.766c-1.253-37.264,72.469-41.194,105.189-43.107
		C386.427,124.035,319.896,72.928,379.238,55.654z M755.148,352.243c2.22,50.871,93.071,50.603,81.045-12.068
		c-3.828-19.951-22.856-32.021-44.832-29.316C767.123,313.851,754.176,330.018,755.148,352.243z"/>
	<path fill-rule="evenodd" clip-rule="evenodd" fill="#00D6A4" d="M344.225,258.395c1.751,0.075,3.508,0.151,5.264,0.227
		c8.647,2.985,17.559,6.924,27.406,10.968c9.45,3.878,22.008,7.391,24.992,14.632c6.751,16.388-9.229,35.477-5.984,51.729
		c1.688,8.46,11.067,14.72,16.457,20.296c4.904,5.072,11.89,15.625,18.844,17.383c18.592,4.701,34.121-10.796,51.463-5.33
		c9.254,2.92,13.463,18.047,16.95,26.344c3.719,8.844,11.475,22.155,9.897,32.822c-2.817,19.048-36.689,20.693-43.069,38.086
		c-4.105,11.175-3.758,36.561-0.462,45.941c2.733,7.785,13.244,12.796,21.816,18.262c6.403,4.082,19.21,10.503,20.283,18.948
		c1.289,10.158-6.969,23.498-11.229,33.425c-4.888,11.406-9.148,22.073-17.703,26.365c-18.322,1.149-31.229-9.489-47.121-8.047
		c-9.337,0.848-16.396,11.438-21.797,16.394c-6.251,5.737-16.033,12.866-17.482,21.102c-3.047,17.344,11.069,33.366,6.178,49.238
		c-2.842,9.221-21.028,13.392-27.813,16.135c-9.141,3.696-21.143,12.096-32.822,9.894c-16.824-3.169-21.515-37.088-36.583-43.004
		c-7.354-2.889-16.72-1.057-24.064-1.03c-7.24,0.02-16.327-0.97-22.66,1.289c-14.212,5.06-22.153,40.496-37.967,42.07
		c-9.676,0.963-24.39-8.368-32.637-11.947c-8.401-3.647-24.445-8.656-26.365-17.707c-3.016-14.208,10.457-34.374,7.391-49.409
		c-1.519-7.456-10.63-15.124-15.703-20.261c-5.075-5.138-11.563-14.357-19.663-15.913c-15.872-3.047-34.557,10.876-49.988,6.145
		c-10.366-3.176-12.868-17.059-16.921-27.095c-3.743-9.268-11.427-23.013-9.897-32.821c2.556-16.374,34.895-18.896,42.225-35.863
		c3.874-8.971,4.333-37.508,1.247-46.657c-6.001-17.782-36.724-18.678-42.793-38.751c0.054-1.255,0.109-2.51,0.161-3.765
		c3.657-9.232,6.46-17.778,11.034-28.906c3.468-8.435,7.635-20.928,14.6-24.238c14.525-6.904,35.335,8.467,51.73,5.983
		c6.802-1.029,14.248-10.41,20.296-16.457c6.212-6.216,15.636-11.395,17.414-19.6c3.475-16.024-12.015-37.186-5.262-52.964
		c3.084-7.207,20.403-12.665,27.029-15.415c8.762-3.641,21.685-11.828,33.54-9.111c7.329,1.678,12.279,13.501,17.181,21.081
		c5.041,7.79,11.187,18.662,17.933,21.11c10.871,3.949,38.569,3.524,46.686,0.493C321.107,294.925,328.291,260.995,344.225,258.395z
		 M198.866,432.988c-19.911,30.753-17.573,76.629-0.692,103.939c16.911,27.355,52.064,47.686,89.194,46.017
		c41.777-1.878,79.258-32.1,89.085-74.538c2.619-11.306,2.813-29.888,0.957-39.89c-8.343-44.958-47.376-83.748-104.318-79.817
		C239.785,391.004,211.498,413.47,198.866,432.988z"/>
	<path fill-rule="evenodd" clip-rule="evenodd" fill="#03D8CB" d="M507.394,624.049c4.072,4.546,3.977,13.757,7.041,19.422
		c2.603,2.018,5.444,3.232,8.68,4.468c2.368,0.903,6.527,3.236,9.582,2.928c6.639-0.671,11.54-10.757,17.72-10.915
		c3.729-0.089,8.574,4.847,10.791,6.826c2.136,1.909,7.406,5.752,7.998,9.955c1.133,8.084-8.047,11.693-8.327,19.3
		c-0.282,7.598,5.714,11.134,8.441,17.859c6.258,3.421,15.597-0.389,20.096,4.812c4.357,5.039,2.131,18.639,1.45,25.688
		c-5.828,4.386-13.834,2.703-18.958,6.523c-3.124,2.327-8.508,13.452-7.858,18.777c0.814,6.691,10.663,11.268,10.884,17.225
		c0.166,4.427-5.021,8.25-7.317,10.82c-2.245,2.511-5.866,7.936-9.434,8.462c-7.082,1.043-11.452-8.495-19.33-8.82
		c-5.693-0.231-16.375,6.482-18.242,10.449c-2.49,5.299,0.055,12.231-3.934,18.063c-7.202,1.678-19.573,3.076-26.209,0.985
		c-4.113-5.723-2.603-12.871-5.975-18c-2.204-3.362-13.354-8.444-18.778-7.859c-6.761,0.728-11.353,10.184-17.749,10.418
		c-4.707,0.174-7.681-4.256-10.818-7.316c-2.588-2.526-7.99-5.811-8.462-9.434c-0.825-6.349,8.613-12.487,8.848-18.838
		c0.273-7.345-6.631-13.133-8.965-18.322c-6.12-1.903-14.675-1.076-19.57-4.346c-1.175-7.437-5.189-19.92-1.452-25.688
		c3.149-4.862,13.862-3.885,17.503-5.942c4.528-2.559,9.337-12.31,8.325-19.305c-0.951-6.593-10.121-11.32-10.42-17.746
		c-0.199-4.357,5.399-8.788,7.319-10.822c1.779-1.881,6.909-8.138,9.927-8.486c5.547-0.647,10.441,7.653,17.326,8.435
		c6.574,0.747,17.998-4.997,20.272-9.57c2.707-5.438,0.086-12.185,4.401-18.584C489.127,623.799,500.387,622.746,507.394,624.049z
		 M461.994,706.4c-6.694,32.083,20.988,54.194,50.625,45.208c9.517-2.886,19.544-13.729,22.949-23.597
		c7.972-23.12-7.861-42.6-22.552-48.281c-5.524-2.136-14.437-2.824-19.925-1.848C475.709,680.973,464.826,692.838,461.994,706.4z"/>
	<path fill-rule="evenodd" clip-rule="evenodd" fill="#00D6A4" d="M660.509,405.773c0.957-0.128,1.916-0.262,2.873-0.394
		c4.98,0.768,10.193,2.031,15.924,3.258c5.504,1.175,12.651,1.849,14.976,5.482c5.269,8.218-1.522,20.13,1.83,28.616
		c1.741,4.421,7.438,6.895,10.906,9.385c3.154,2.268,7.974,7.302,11.916,7.575c10.535,0.723,17.43-9.194,27.361-7.93
		c5.305,0.672,9.067,8.457,11.771,12.61c2.877,4.431,8.387,10.882,8.576,16.818c0.34,10.596-17.852,14.81-19.604,24.856
		c-1.128,6.457,1.546,20.181,4.25,24.94c2.243,3.954,8.431,5.638,13.615,7.76c3.869,1.584,11.439,3.807,12.847,8.28
		c1.693,5.376-1.476,13.417-2.808,19.215c-1.53,6.657-2.798,12.856-7.01,16.019c-9.817,2.42-17.854-2.082-26.323,0.257
		c-4.979,1.374-7.769,7.804-10.21,11.021c-2.822,3.722-7.422,8.543-7.402,13.147c0.049,9.697,9.268,16.994,8.174,26.076
		c-0.636,5.273-10.084,9.316-13.493,11.468c-4.59,2.899-10.27,8.625-16.815,8.579c-9.429-0.07-15.293-17.99-24.038-19.72
		c-4.269-0.847-9.165,1.069-13.14,1.8c-3.922,0.718-8.943,1.076-12.153,2.917c-7.205,4.136-8.035,24.116-16.45,26.52
		c-5.151,1.47-14.036-2.145-18.86-3.275c-4.909-1.154-14.094-2.296-16.022-7.013c-3.025-7.402,2.302-19.65-0.835-27.5
		c-1.553-3.887-7.241-7.152-10.496-9.438c-3.252-2.285-7.669-6.646-12.212-6.694c-8.901-0.096-17.663,9.277-26.491,8.226
		c-5.926-0.705-8.643-7.983-11.823-13.024c-2.935-4.651-8.444-11.351-8.578-16.816c-0.221-9.121,17.061-13.655,19.369-23.571
		c1.221-5.241-1.33-20.75-3.9-25.402c-4.992-9.05-21.729-6.525-26.984-16.81c-0.096-0.685-0.187-1.367-0.282-2.052
		c1.079-5.361,1.758-10.269,3.146-16.748c1.053-4.907,2.086-12.085,5.537-14.564c7.195-5.163,19.977,1.128,28.616-1.828
		c3.586-1.221,6.701-7.035,9.385-10.908c2.759-3.973,7.358-7.705,7.518-12.323c0.311-9.025-10.155-18.976-8.041-28.184
		c0.962-4.209,9.814-8.866,13.137-11.006c4.39-2.829,10.591-8.534,17.282-8.224c4.134,0.192,7.975,6.115,11.375,9.738
		c3.494,3.729,7.891,9.019,11.784,9.686c6.281,1.072,21.249-1.874,25.353-4.31C651.561,427.835,652.129,408.745,660.509,405.773z
		 M598.848,514.625c-7.773,18.62-2.013,43.249,9.811,56.395c11.844,13.163,32.884,20.736,52.842,16.193
		c22.456-5.11,39.807-25.161,40.972-49.119c0.31-6.382-1.406-16.472-3.392-21.709c-8.928-23.548-33.875-40.741-64.348-33.031
		C616.906,487.866,603.779,502.813,598.848,514.625z"/>
	<path fill-rule="evenodd" clip-rule="evenodd" fill="#03D8CB" d="M801.415,265.604c3.844,4.29,3.755,12.99,6.652,18.343
		c2.458,1.908,5.138,3.054,8.195,4.217c2.236,0.853,6.162,3.053,9.043,2.764c6.274-0.633,10.897-10.158,16.733-10.304
		c3.522-0.086,8.096,4.575,10.19,6.445c2.017,1.8,6.992,5.43,7.552,9.399c1.069,7.632-7.596,11.042-7.863,18.224
		c-0.266,7.176,5.394,10.511,7.972,16.864c5.91,3.228,14.727-0.368,18.973,4.542c4.116,4.757,2.013,17.599,1.374,24.256
		c-5.508,4.142-13.066,2.554-17.903,6.157c-2.951,2.202-8.032,12.703-7.42,17.734c0.767,6.32,10.067,10.635,10.275,16.265
		c0.156,4.181-4.738,7.788-6.909,10.218c-2.119,2.37-5.537,7.492-8.906,7.99c-6.688,0.986-10.815-8.021-18.253-8.329
		c-5.375-0.221-15.464,6.12-17.222,9.865c-2.352,5.007,0.05,11.55-3.714,17.056c-6.805,1.584-18.484,2.904-24.752,0.93
		c-3.88-5.404-2.456-12.153-5.638-16.997c-2.082-3.169-12.609-7.971-17.729-7.419c-6.387,0.686-10.723,9.618-16.761,9.837
		c-4.443,0.165-7.254-4.019-10.218-6.908c-2.445-2.386-7.542-5.486-7.988-8.909c-0.783-5.995,8.131-11.791,8.354-17.785
		c0.255-6.938-6.263-12.399-8.467-17.305c-5.78-1.795-13.856-1.017-18.48-4.102c-1.105-7.024-4.9-18.812-1.372-24.256
		c2.979-4.59,13.091-3.67,16.53-5.614c4.275-2.414,8.815-11.623,7.861-18.224c-0.9-6.224-9.556-10.688-9.837-16.758
		c-0.192-4.111,5.094-8.298,6.908-10.217c1.685-1.78,6.525-7.686,9.378-8.018c5.234-0.608,9.857,7.23,16.356,7.967
		c6.206,0.705,16.997-4.718,19.144-9.038c2.554-5.133,0.08-11.507,4.155-17.547C784.167,265.37,794.801,264.378,801.415,265.604z
		 M758.546,343.368c-6.323,30.293,19.814,51.172,47.803,42.686c8.984-2.725,18.456-12.964,21.668-22.28
		c7.529-21.831-7.423-40.227-21.294-45.591c-5.216-2.017-13.631-2.666-18.815-1.745C771.494,319.357,761.219,330.56,758.546,343.368
		z"/>
	<path fill="none" d="M417.266,55.531"/>
</g>
</svg>
