<svg xmlns="http://www.w3.org/2000/svg" viewBox="0 0 367.273 40.715"><defs><style>.a{fill:#03a9ac;}</style></defs><path class="a" d="M20.369-39.485A13.88,13.88,0,0,1,29.377-35.2a13.016,13.016,0,0,1,4,9.492,12.932,12.932,0,0,1-3.977,9.47,13.831,13.831,0,0,1-2.966,2.571,1,1,0,0,0-.308.681.941.941,0,0,0,.066.33l5.054,8.745,1.6,2.791a1.276,1.276,0,0,1,.2.593q0,.527-.923.527H26.719a1.277,1.277,0,0,1-1.165-.593L19.27-11.843H14.744q-1.1,0-1.1.967v9.163A1.515,1.515,0,0,1,11.931,0H3.889A1.321,1.321,0,0,1,2.417-1.516V-37.969q0-1.516,1.6-1.516ZM13.645-18.853a1.379,1.379,0,0,0,1.538,1.582h4.592a6.929,6.929,0,0,0,4.57-2.175,8.5,8.5,0,0,0,2.483-6.2A8.093,8.093,0,0,0,24.609-31.6a8.533,8.533,0,0,0-6.021-2.5h-3.34q-1.6,0-1.6,1.384ZM66.116-2.109A20.771,20.771,0,0,1,56.777-.044,19.771,19.771,0,0,1,42.242-5.933a18.977,18.977,0,0,1-5.9-13.887,18.989,18.989,0,0,1,5.9-13.876,19.752,19.752,0,0,1,14.535-5.9,20.771,20.771,0,0,1,9.338,2.065v-.439q0-1.516,1.6-1.516h7.844a1.466,1.466,0,0,1,1.67,1.648V-1.648A1.437,1.437,0,0,1,75.63,0H67.588q-1.472,0-1.472-1.736Zm0-10.5V-27.8a4.718,4.718,0,0,0-1.681-2.933Q62.93-32.1,58.008-32.542q-.593-.044-1.165-.044a13.4,13.4,0,0,0-8.174,2.922q-4.395,3.318-4.395,9.866,0,6.57,4.395,9.866a13.434,13.434,0,0,0,8.2,2.922q.571,0,1.165-.044Q63-7.493,64.556-8.932A4.785,4.785,0,0,0,66.116-12.612ZM93.647-34.1q-1.208,0-1.208,1.252v3.911q0,1.3,1.187,1.3H96a1.97,1.97,0,0,0,1.143-.637,3.726,3.726,0,0,0,1.011-2.791Q98.086-34.1,95.383-34.1Zm.725-5.383q6.086,0,8.306,2.527a8.508,8.508,0,0,1,2.219,5.779q0,3.494-.989,4.526,1.538.33,4.307,3.12a13.377,13.377,0,0,1,4.263,9.756,12.991,12.991,0,0,1-4,9.47A13.839,13.839,0,0,1,99.47,0H82.815a1.146,1.146,0,0,1-1.3-1.3V-38.408q0-1.077,1.384-1.077Zm-.33,17.249q-1.6,0-1.6,1.384V-6.987a1.379,1.379,0,0,0,1.538,1.582h4.592a6.929,6.929,0,0,0,4.57-2.175,8.5,8.5,0,0,0,2.483-6.2,8.093,8.093,0,0,0-2.219-5.955,8.533,8.533,0,0,0-6.021-2.5ZM128.892-34.1q-1.208,0-1.208,1.252v3.911q0,1.3,1.187,1.3h2.373a1.97,1.97,0,0,0,1.143-.637,3.726,3.726,0,0,0,1.011-2.791q-.066-3.032-2.769-3.032Zm.725-5.383q6.086,0,8.306,2.527a8.508,8.508,0,0,1,2.219,5.779q0,3.494-.989,4.526,1.538.33,4.307,3.12a13.377,13.377,0,0,1,4.263,9.756,12.991,12.991,0,0,1-4,9.47A13.839,13.839,0,0,1,134.714,0H118.059a1.146,1.146,0,0,1-1.3-1.3V-38.408q0-1.077,1.384-1.077Zm-.33,17.249q-1.6,0-1.6,1.384V-6.987a1.379,1.379,0,0,0,1.538,1.582h4.592a6.929,6.929,0,0,0,4.57-2.175,8.5,8.5,0,0,0,2.483-6.2,8.093,8.093,0,0,0-2.219-5.955,8.533,8.533,0,0,0-6.021-2.5ZM161.235-28.5a1.466,1.466,0,0,1,1.67,1.648v25.2A1.437,1.437,0,0,1,161.3,0h-8.042q-1.472,0-1.472-1.736V-26.982q0-1.516,1.6-1.516Zm.505-5.559H153q-1.208,0-1.208-.923v-3.34q0-1.165,1.34-1.187h8.5q1.274,0,1.274,1.165V-35Q162.905-34.08,161.741-34.058Zm23.8-5.427q1.274,0,1.274,1.165v3.34q0,.923-1.208.923h-3.647v32.41A1.437,1.437,0,0,1,180.352,0h-7.668q-1.472,0-1.472-1.736V-34.058H167.52q-1.208,0-1.208-.923v-3.34q0-1.165,1.274-1.165Zm25.686,25.356q-.22-.527-.4-.527t-.308.374L205.862-1.077Q205.378.088,204.456.088h-1.8a1.819,1.819,0,0,1-1.538-1.055l-12.92-37a2.255,2.255,0,0,1-.176-.769q0-.747.945-.747h8.789a1.865,1.865,0,0,1,1.846,1.23l5.493,15.732q.176.571.33.571.176,0,.308-.549l1.384-3.911-4-11.558a2.255,2.255,0,0,1-.176-.769q0-.747.945-.747h9.207v.044a1.858,1.858,0,0,1,1.428,1.187l5.493,15.732q.176.571.33.571.176,0,.308-.549l5.581-16.04q.374-.945,1.78-.945h4.219q1.34,0,1.34,1.165a2.581,2.581,0,0,1-.044.461L220.562-1.077Q220.078.088,219.155.088h-1.8a1.819,1.819,0,0,1-1.538-1.055ZM250-24.543h17.117q1.362,0,1.472-.615-1.582-7.053-8.394-8.547a18.428,18.428,0,0,0-4.065-.505,9.052,9.052,0,0,0-5.229,1.428q-.9.483-.9,2.5Zm0,5.427v6.768q0,5.01,1.978,6.174a6.124,6.124,0,0,0,3.494.835,22.319,22.319,0,0,0,4.812-.637,21.847,21.847,0,0,0,8.416-5.405,1.474,1.474,0,0,1,1.428-.813,4.163,4.163,0,0,1,1.384.286l1.538,1.011a1.248,1.248,0,0,1,.967,1.208,3.034,3.034,0,0,1-.417,1.362A20.425,20.425,0,0,1,262.749-.7a28.193,28.193,0,0,1-6.636.835,21.168,21.168,0,0,1-9.866-2.351,18.242,18.242,0,0,1-9.558-10.833,19.1,19.1,0,0,1-.923-5.867q0-.483.022-.967-.022-.439-.022-.879a18.829,18.829,0,0,1,.923-5.823,18.319,18.319,0,0,1,9.558-10.876,21.33,21.33,0,0,1,9.866-2.329,28.193,28.193,0,0,1,6.636.835,17.361,17.361,0,0,1,9.712,8.108,21.43,21.43,0,0,1,2.988,9.976v.483a1.146,1.146,0,0,1-1.318,1.274Zm47.461-20.369a13.88,13.88,0,0,1,9.009,4.285,13.016,13.016,0,0,1,4,9.492,12.932,12.932,0,0,1-3.977,9.47,13.831,13.831,0,0,1-2.966,2.571,1,1,0,0,0-.308.681.941.941,0,0,0,.066.33l5.054,8.745,1.6,2.791a1.276,1.276,0,0,1,.2.593q0,.527-.923.527h-5.405a1.277,1.277,0,0,1-1.165-.593l-6.284-11.25h-4.526q-1.1,0-1.1.967v9.163A1.515,1.515,0,0,1,289.028,0h-8.042a1.321,1.321,0,0,1-1.472-1.516V-37.969q0-1.516,1.6-1.516Zm-6.724,20.632a1.379,1.379,0,0,0,1.538,1.582h4.592a6.929,6.929,0,0,0,4.57-2.175,8.5,8.5,0,0,0,2.483-6.2,8.093,8.093,0,0,0-2.219-5.955,8.533,8.533,0,0,0-6.021-2.5h-3.34q-1.6,0-1.6,1.384Zm34.541-4.153q.132.264.308.264.242,0,.549-.461l9.229-15.6a1.436,1.436,0,0,1,1.384-.681h5.3q.747,0,.747.571a1.577,1.577,0,0,1-.11.505l-8.394,14.832a.788.788,0,0,0-.132.4q0,.264.352.374,2.439,1.011,6.438,5.01a19.985,19.985,0,0,1,6.108,14.612v1.8Q347.058,0,345.806,0h-4.373q-1.3,0-1.3-1.165V-3.186a15.419,15.419,0,0,0-4.592-11.272,19.25,19.25,0,0,0-3.582-3.164,2.131,2.131,0,0,0-.417-.044,1.415,1.415,0,0,0-1.3.747l-4.966,8.657v6.614A1.437,1.437,0,0,1,323.679,0h-7.668q-1.472,0-1.472-1.736V-37.969q0-1.516,1.6-1.516h7.471a1.466,1.466,0,0,1,1.67,1.648Zm40.232,2.439h.044q2.966,9.009,3.01,10.745v.33A9.4,9.4,0,0,1,366-3.12,10.249,10.249,0,0,1,358.879.286q-.527.044-1.033.044a9.551,9.551,0,0,1-6.965-2.571,1.2,1.2,0,0,1-.2-.659,1.894,1.894,0,0,1,.4-1.055l1.582-1.582a1.528,1.528,0,0,1,1.208-.747,1.8,1.8,0,0,1,1.077.439,4.529,4.529,0,0,0,2.175.769,1.549,1.549,0,0,0,1.033-.352,1.805,1.805,0,0,0,.637-1.472,4.314,4.314,0,0,0-.22-1.274L354.858-19.49h-.044q-2.966-9.009-3.01-10.745v-.33a9.439,9.439,0,0,1,2.593-6.394,10.208,10.208,0,0,1,7.1-3.384q.527-.044,1.033-.044a9.551,9.551,0,0,1,6.965,2.571,1.234,1.234,0,0,1,.2.681,1.862,1.862,0,0,1-.374,1.033l-1.6,1.582a1.528,1.528,0,0,1-1.208.747,1.8,1.8,0,0,1-1.077-.439,4.529,4.529,0,0,0-2.175-.769,1.526,1.526,0,0,0-1.011.33,1.842,1.842,0,0,0-.659,1.494,4.314,4.314,0,0,0,.22,1.274Z" transform="translate(-2.417 40.386)"/></svg>