<?xml version="1.0" standalone="no"?>
<!DOCTYPE svg PUBLIC "-//W3C//DTD SVG 20010904//EN"
 "http://www.w3.org/TR/2001/REC-SVG-20010904/DTD/svg10.dtd">
<svg version="1.0" xmlns="http://www.w3.org/2000/svg"
 width="700.000000pt" height="700.000000pt" viewBox="0 0 700.000000 700.000000"
 preserveAspectRatio="xMidYMid meet">
<metadata>
Created by potrace 1.11, written by Peter Selinger 2001-2013
</metadata>
<g transform="translate(0.000000,700.000000) scale(0.100000,-0.100000)"
fill="#000000" stroke="none">
<path d="M2608 6814 c-60 -14 -122 -46 -152 -79 -76 -84 -18 -207 157 -326 84
-59 228 -119 260 -111 5 2 6 -2 3 -7 -4 -5 -14 -9 -24 -9 -141 6 -471 -59
-573 -112 -78 -41 -136 -114 -140 -177 -8 -118 72 -173 361 -244 278 -68 632
-187 940 -316 157 -65 527 -244 632 -305 l58 -34 -19 -34 c-16 -30 -28 -72
-37 -130 -2 -8 -5 -28 -8 -45 -3 -16 -8 -50 -11 -75 -24 -168 -65 -264 -138
-321 -97 -77 -245 -135 -397 -155 l-45 -6 -28 61 c-50 108 -110 125 -284 78
-115 -31 -170 -29 -223 8 -22 15 -40 31 -40 35 0 4 -34 40 -75 81 -41 41 -82
88 -90 106 -22 45 -18 106 13 213 31 104 33 176 8 215 -21 31 -61 52 -248 126
-137 53 -155 58 -184 49 -42 -14 -76 -54 -144 -164 -70 -115 -103 -142 -177
-152 -87 -11 -112 -11 -203 -2 -102 10 -128 27 -199 134 -28 42 -51 78 -51 81
0 13 -64 94 -82 104 -42 22 -103 11 -230 -42 -179 -75 -216 -95 -233 -129 -21
-42 -18 -111 10 -219 32 -121 32 -177 3 -217 -34 -44 -226 -224 -240 -225 -7
0 -24 -2 -38 -4 -27 -3 -49 1 -175 34 -97 25 -158 27 -195 5 -17 -11 -41 -44
-64 -90 -20 -40 -36 -76 -36 -80 0 -3 -6 -20 -14 -37 -38 -89 -69 -178 -69
-202 0 -43 53 -96 164 -163 150 -91 163 -115 162 -292 -1 -200 -22 -236 -193
-326 -36 -19 -81 -49 -100 -66 -33 -30 -35 -35 -34 -92 1 -50 12 -87 58 -200
70 -171 81 -190 123 -210 46 -22 71 -20 188 10 126 33 179 36 228 12 47 -23
52 -35 38 -95 -5 -27 -13 -71 -16 -98 -4 -28 -8 -61 -11 -75 -25 -156 -20
-436 11 -550 8 -30 13 -55 12 -56 -1 -1 -42 -3 -92 -5 -49 -2 -115 -9 -145
-16 -270 -67 -409 -297 -326 -541 63 -186 265 -279 536 -245 114 14 117 15
202 46 84 30 167 80 213 127 l36 37 42 -41 c24 -23 61 -57 84 -77 63 -54 87
-101 87 -173 0 -53 -7 -76 -51 -171 -28 -60 -55 -130 -59 -155 -11 -71 -6
-200 10 -253 46 -152 138 -188 459 -181 106 2 217 6 247 9 30 2 82 7 115 10
290 25 898 25 1440 0 50 -2 144 -7 210 -10 66 -3 174 -8 240 -11 389 -20 589
-3 714 61 75 37 84 54 77 127 -21 198 -177 320 -501 391 -73 17 -126 27 -160
31 -11 2 -38 6 -60 9 -99 16 -139 20 -279 32 -76 6 -250 16 -346 20 -41 1
-151 6 -245 10 -93 4 -185 8 -202 8 -18 0 -33 3 -33 7 0 6 26 14 130 35 93 20
420 115 465 135 11 5 58 25 105 45 163 70 311 169 403 270 77 85 155 231 172
322 71 382 -74 669 -418 828 -275 127 -648 117 -926 -24 l-42 -22 23 40 c13
23 52 73 88 111 l65 71 65 -21 c36 -11 90 -23 120 -26 51 -6 59 -4 88 21 20
16 49 62 73 114 22 47 45 96 51 107 17 35 166 60 328 55 l35 -1 -69 -65 c-82
-78 -82 -84 -9 -204 70 -115 93 -124 195 -77 85 40 100 40 165 -4 94 -62 106
-79 104 -147 -1 -32 -4 -71 -5 -88 -6 -65 13 -79 154 -114 110 -28 129 -22
161 48 12 28 26 51 30 51 9 0 26 -79 44 -195 20 -134 12 -351 -20 -519 l-13
-68 73 -94 c152 -194 299 -433 465 -754 131 -253 177 -325 259 -408 111 -110
202 -134 491 -128 107 3 213 7 235 11 144 21 191 29 279 46 55 11 101 21 103
23 2 2 4 39 4 83 1 157 -45 249 -162 320 -46 29 -191 76 -299 98 -122 24 -306
72 -337 87 -21 10 -27 21 -29 51 -3 59 -15 219 -19 247 -11 80 -49 299 -66
385 -11 55 -22 111 -24 125 -84 490 -83 536 34 889 81 243 93 302 93 437 -1
121 -37 298 -83 400 -10 23 -21 54 -25 68 -6 26 -6 26 52 27 33 0 86 2 119 4
193 10 293 16 320 20 17 3 52 7 78 10 27 3 69 10 95 16 26 6 58 13 71 15 54
11 149 47 210 81 111 62 190 157 230 276 26 81 22 253 -8 357 -86 289 -206
540 -360 750 -215 293 -505 508 -801 593 -80 23 -113 31 -200 44 -76 11 -300
10 -385 -3 -49 -7 -99 -15 -111 -16 -15 -2 -40 22 -104 102 -75 95 -260 287
-350 365 -233 201 -515 365 -834 485 -113 42 -333 109 -411 124 -11 3 -52 11
-91 20 -38 8 -92 18 -120 22 -27 3 -51 8 -54 9 -9 5 -140 17 -206 19 -34 1
-86 -4 -116 -10z m3177 -1965 c132 -67 188 -226 125 -353 -33 -65 -109 -133
-163 -144 -68 -14 -143 -6 -201 22 -223 109 -172 458 73 495 65 10 120 3 166
-20z m-3721 -538 c43 -12 96 -31 119 -42 52 -26 137 -82 137 -90 0 -4 -15 -10
-33 -13 -36 -7 -208 -60 -242 -75 -11 -5 -58 -25 -105 -44 -285 -119 -561
-314 -716 -508 -29 -37 -51 -56 -57 -50 -10 10 -12 210 -3 251 4 14 9 41 12
60 8 49 46 140 85 206 90 150 313 294 497 323 81 13 224 4 306 -18z"/>
</g>
</svg>
